<svg id="Layer_1" data-name="Layer 1" xmlns="http://www.w3.org/2000/svg" xmlns:xlink="http://www.w3.org/1999/xlink" viewBox="0 0 2423 800"><defs><style>.cls-1{fill:url(#linear-gradient);}.cls-2{fill:none;stroke-linecap:round;stroke-linejoin:bevel;stroke-width:40px;stroke:url(#linear-gradient-2);}</style><linearGradient id="linear-gradient" x1="98.3" y1="406.35" x2="698.3" y2="406.35" gradientUnits="userSpaceOnUse"><stop offset="0" stop-color="#ed1c24"/><stop offset="0.23" stop-color="#ef3524"/><stop offset="0.49" stop-color="#f04a24"/><stop offset="0.75" stop-color="#f15624"/><stop offset="1" stop-color="#f15a24"/></linearGradient><linearGradient id="linear-gradient-2" x1="327" y1="485.5" x2="482" y2="485.5" xlink:href="#linear-gradient"/></defs><title>SiteLogo</title><path d="M751.62,459.78c-4.09,20.74-8.27,41.15-9.68,51.79H685.51a145.17,145.17,0,0,1,2.27-18.31C675.11,508.7,660,515.15,636.1,515.15c-36.38,0-54.58-25.92-52.59-59.66,2.42-44,33.09-66.1,85.82-71.54,13.12-1.56,24.92-2.5,40.32-2.88l1.87-8.74c4.11-18.13,1.48-31.74-20.06-31.74-18.83,0-24,12.33-27.23,23.29H607.7c7.14-32.92,26.88-62.66,87.76-62.66,54.51,0,83.8,23.19,72,79.8Zm-49-41.17c-9.24.21-17.55.46-26.59,2-17.53,2.74-32,10.32-33,29-.95,12.61,4.41,21.93,19.71,21.93,25.27,0,33.46-20.4,38.49-46.13Z"/><path d="M832.05,492.76,812.84,588H754.26l45-223.38c5.64-27.74,9.54-48.51,11.32-59.59h57.53c-.53,6.23-1.95,15.68-3.28,23.18,9.38-13.54,24.56-27,53.55-27,38.1,0,61.9,29.22,56.94,86.19-4.66,66-36.9,127.75-98,127.75C853.53,515.16,837.83,506.33,832.05,492.76Zm83-101c2.89-32.6-5-44.51-23.66-44.51-24.49,0-38,27.19-44.49,62-8.22,43.16-1.39,60.48,22,60.48C899.6,469.73,912.24,423.1,915.06,391.74Z"/><path d="M1042.13,422.06a92.22,92.22,0,0,0-2,16.78c0,17.28,5.5,32.2,24.38,32.2,19.18,0,25.6-11.4,30.81-22.93h58.05c-12.41,36.21-37.5,67-93.09,67-62.22,0-79.52-41.16-76.45-92.81,3-47.54,30-121.19,107.34-121.13,58.45,0,78.08,40.42,74.36,84.62,0,7.41-2.37,22.46-5.93,36.22ZM1109,385.12a62.73,62.73,0,0,0,1.92-14.56c0-14.65-5.59-26.72-24.11-26.72-22.4,0-32.4,22.62-36.75,41.28Z"/><path d="M1181.81,374.9c6.86-34.39,11.1-55.36,13.27-69.87h56.52c-.53,7.24-2.55,21.09-5.43,35.68,12.83-23.93,31.58-38.89,65.26-38.89l-12.53,60.51c-38.79-1.77-58.32,13-66.94,55.35l-18.82,93.89h-58.87Z"/><path d="M1322.61,305h58.87l-41.62,206.54H1281Zm15.76-78.72h58.87l-10.16,50.51h-58.87Z"/><path d="M1418.92,447.16c.6,16.77,9.13,27,25.2,27,13.38,0,22.07-5.12,22.75-17.28.91-12.49-7.55-19.41-30.58-30.13-40.7-18.64-55.38-35.84-53.62-65.32,1.67-33.75,26.64-60.21,77.53-60.21,57.43,0,77.4,34,75.56,65.21h-54.85c-.45-14.3-6-24.33-22.51-24.33-9,0-18.26,3.37-18.93,15.17-.78,10.14,5.92,14.75,27.91,24.74,42.68,19.65,59.88,37,58.19,69.59-1.74,34.7-27.14,63.56-84.68,63.56-56.14,0-79.27-30-78.46-68Z"/><path class="cls-1" d="M456,166,638.3,646.71H487L471.1,603.47H325.51l-15.86,43.24H158.3L340.64,166H456m0-60H340.64a60,60,0,0,0-56.1,38.72L102.2,625.43a60,60,0,0,0,56.1,81.28H309.65A60,60,0,0,0,366,667.37l1.43-3.9h61.78l1.42,3.89A60,60,0,0,0,487,706.71H638.3a60,60,0,0,0,56.1-81.28L512.06,144.71A60,60,0,0,0,456,106Z"/><path class="cls-2" d="M347,466s14,39,57,39,58-39,58-39"/></svg>