<svg xmlns="http://www.w3.org/2000/svg" viewBox="0 0 279.79 44.91"><defs><style>.a{fill:#2d2c69;}</style></defs><polygon class="a" points="80.19 44.25 76.09 44.25 52.97 10.04 49.74 4.42 49.67 4.42 49.87 9.71 49.87 44.25 46.7 44.25 46.7 0.66 50.86 0.66 73.91 34.81 77.21 40.49 77.08 35.2 77.08 0.66 80.19 0.66 80.19 44.25"/><rect class="a" x="94.25" y="0.66" width="3.3" height="43.59"/><polygon class="a" points="141.35 3.7 125.43 3.7 125.43 44.25 122.13 44.25 122.13 3.7 106.21 3.7 106.21 0.66 141.35 0.66 141.35 3.7"/><polygon class="a" points="237.32 44.25 229.13 44.25 229.13 21.53 229.53 8.78 229.39 8.78 217.31 44.25 209.84 44.25 197.82 8.78 197.69 8.78 198.15 21.53 198.15 44.25 189.89 44.25 189.89 0.66 203.1 0.66 210.96 24.44 213.74 34.28 213.87 34.28 216.71 24.5 224.5 0.66 237.32 0.66 237.32 44.25"/><polygon class="a" points="279.79 36.92 279.79 44.25 247.69 44.25 247.69 0.66 256.8 0.66 256.8 36.92 279.79 36.92"/><path class="a" d="M178.47,9.64l-2.78,2.12C173.12,5.61,168.56,3,161.76,3c-7.86,0-12.09,4-12.09,9,0,4,2.18,6.67,9.25,8.19l8.52,1.85c8.45,1.85,11.62,5.22,11.62,10.7,0,7.2-6.6,12.15-16.31,12.15-9.32,0-15.85-4-18.23-10.56l2.9-2.25c1.85,6.28,7.53,9.78,15.46,9.78,7.46,0,12.75-3.11,12.75-8.92,0-3.63-2.31-6.21-8.85-7.6l-9-2c-8.39-1.85-11.62-5.48-11.62-11C146.17,5.75,152.18,0,162,0c8,0,13.48,3.17,16.45,9.64"/><path class="a" d="M33.62,28.34c0,10.83-6.08,16.57-16.78,16.57S0,39.17,0,28.34V.66H3.3v27c0,9.37,4.69,14.2,13.54,14.2s13.48-4.83,13.48-14.2V.66h3.3Z"/></svg>