<svg xmlns="http://www.w3.org/2000/svg" xmlns:xlink="http://www.w3.org/1999/xlink" viewBox="0 0 137.26 95.66"><defs><style>.a{fill:none;}.b{fill:#2d2c69;}.c{clip-path:url(#a);}.d{fill:url(#b);}</style><clipPath id="a"><polygon class="a" points="91.47 0 54.73 0 45.8 0 45.79 0 45.79 8.93 45.8 8.93 45.8 52.62 54.73 52.62 91.34 52.62 91.34 43.69 54.73 43.69 54.73 8.93 64.17 8.93 64.17 35.05 73.1 35.05 73.1 8.93 82.54 8.93 82.54 35.02 91.47 35.02 91.47 0"/></clipPath><linearGradient id="b" x1="-1429.93" y1="68.9" x2="-1428.93" y2="68.9" gradientTransform="matrix(0, -52.62, -52.62, 0, 3694.28, -75192.92)" gradientUnits="userSpaceOnUse"><stop offset="0" stop-color="#57a0fe"/><stop offset="1" stop-color="#30dfc0"/></linearGradient></defs><polygon class="b" points="39.34 95.34 37.33 95.34 25.99 78.55 24.4 75.8 24.37 75.8 24.46 78.39 24.46 95.34 22.91 95.34 22.91 73.95 24.95 73.95 36.26 90.7 37.88 93.49 37.82 90.9 37.82 73.95 39.34 73.95 39.34 95.34"/><rect class="b" x="46.24" y="73.95" width="1.62" height="21.39"/><polygon class="b" points="69.35 75.44 61.53 75.44 61.53 95.34 59.91 95.34 59.91 75.44 52.1 75.44 52.1 73.95 69.35 73.95 69.35 75.44"/><polygon class="b" points="116.43 95.34 112.41 95.34 112.41 84.19 112.61 77.94 112.54 77.94 106.61 95.34 102.95 95.34 97.05 77.94 96.99 77.94 97.21 84.19 97.21 95.34 93.16 95.34 93.16 73.95 99.64 73.95 103.5 85.61 104.86 90.44 104.92 90.44 106.32 85.65 110.14 73.95 116.43 73.95 116.43 95.34"/><polygon class="b" points="137.26 91.74 137.26 95.34 121.52 95.34 121.52 73.95 125.99 73.95 125.99 91.74 137.26 91.74"/><g class="c"><rect class="d" x="45.79" width="45.68" height="52.62"/></g><path class="b" d="M87.56,78.36l-1.36,1c-1.27-3-3.5-4.28-6.84-4.28-3.86,0-5.93,2-5.93,4.41,0,2,1.07,3.27,4.53,4l4.18.91c4.15.9,5.71,2.56,5.71,5.25,0,3.53-3.24,6-8,6-4.56,0-7.77-1.94-8.94-5.19l1.43-1.1c.9,3.08,3.69,4.8,7.58,4.8,3.66,0,6.25-1.52,6.25-4.38,0-1.78-1.13-3-4.34-3.72l-4.41-1c-4.11-.91-5.7-2.69-5.7-5.38,0-3.28,3-6.1,7.78-6.1,3.92,0,6.61,1.56,8.07,4.74"/><path class="b" d="M16.49,87.53c0,5.31-3,8.13-8.23,8.13S0,92.84,0,87.53V74H1.62V87.2c0,4.6,2.3,7,6.64,7s6.61-2.37,6.61-7V74h1.62Z"/></svg>